<svg width="164" height="52" viewBox="0 0 1869 655" xmlns="http://www.w3.org/2000/svg"><path fill="#0e9c9f" d="M 629 361.480011 C 615.289978 361.480011 604.539978 350.670013 604.539978 336.890015 C 604.539978 323.059998 615.299988 312.209991 629 312.209991 C 642.669983 312.209991 653.809998 323.279999 653.809998 336.890015 C 653.809998 350.440002 642.659973 361.480011 629 361.480011 M 386.25 543.22998 C 395.380005 543.22998 402.799988 535.859985 402.799988 526.840027 C 402.799988 517.76001 395.380005 510.380005 386.25 510.380005 C 377.119995 510.380005 369.940002 517.599976 369.940002 526.840027 C 369.940002 536.030029 377.119995 543.22998 386.25 543.22998 M 472.149994 491.48999 C 481.26001 491.48999 488.690002 484.150024 488.690002 475.099976 C 488.690002 466.039978 481.26001 458.640015 472.149994 458.640015 C 463.01001 458.640015 455.850006 465.859985 455.850006 475.099976 C 455.850006 484.309998 463.01001 491.48999 472.149994 491.48999 M 522.710022 407.089996 C 534.109985 407.089996 543.369995 397.880005 543.369995 386.600006 C 543.369995 375.26001 534.109985 366.029999 522.710022 366.029999 C 511.280029 366.029999 502.330017 375.070007 502.330017 386.600006 C 502.330017 398.100006 511.280029 407.089996 522.710022 407.089996 M 523.679993 308.350006 C 537.349976 308.350006 548.469971 297.329987 548.469971 283.769989 C 548.469971 270.170013 537.359985 259.089996 523.679993 259.089996 C 509.969971 259.089996 499.209991 269.940002 499.209991 283.769989 C 499.200012 297.559998 509.960022 308.350006 523.679993 308.350006 M 479.089996 225.98999 C 495.049988 225.98999 508.030029 213.130005 508.030029 197.299988 C 508.030029 181.440002 495.049988 168.51001 479.089996 168.51001 C 463.089996 168.51001 450.549988 181.160034 450.549988 197.299988 C 450.549988 213.410004 463.089996 225.98999 479.089996 225.98999 M 386.140015 180.700012 C 404.380005 180.700012 419.220001 166 419.220001 147.900024 C 419.220001 129.77002 404.380005 114.98999 386.140015 114.98999 C 367.859985 114.98999 353.529999 129.460022 353.529999 147.900024 C 353.519989 166.309998 367.850006 180.700012 386.140015 180.700012 M 282.589996 184.799988 C 303.089996 184.799988 319.809998 168.27002 319.809998 147.900024 C 319.809998 127.5 303.089996 110.900024 282.589996 110.900024 C 262.01001 110.900024 245.899994 127.150024 245.899994 147.900024 C 245.899994 168.609985 262.01001 184.799988 282.589996 184.799988 M 191.820007 234.720001 C 212.330002 234.720001 229.029999 218.179993 229.029999 197.820007 C 229.029999 177.429993 212.339996 160.789978 191.820007 160.789978 C 171.240005 160.789978 155.130005 177.079956 155.130005 197.820007 C 155.119995 218.51001 171.240005 234.720001 191.820007 234.720001 M 144.460007 317.070007 C 162.699997 317.070007 177.550003 302.350006 177.550003 284.269989 C 177.550003 266.130005 162.699997 251.369995 144.460007 251.369995 C 126.179993 251.369995 111.849998 265.820007 111.849998 284.269989 C 111.839996 302.679993 126.169998 317.070007 144.460007 317.070007 M 144.479996 415.320007 C 160.449997 415.320007 173.429993 402.440002 173.429993 386.619995 C 173.429993 370.75 160.440002 357.820007 144.479996 357.820007 C 128.490005 357.820007 115.949997 370.480011 115.949997 386.619995 C 115.949997 402.709991 128.490005 415.320007 144.479996 415.320007 M 197.850006 499.700012 C 211.529999 499.700012 222.669998 488.669983 222.669998 475.119995 C 222.669998 461.52002 211.529999 450.440002 197.850006 450.440002 C 184.149994 450.440002 173.389999 461.289978 173.389999 475.119995 C 173.389999 488.909973 184.160004 499.700012 197.850006 499.700012 M 282.200012 547.340027 C 293.600006 547.340027 302.869995 538.150024 302.869995 526.840027 C 302.869995 515.48999 293.600006 506.25 282.200012 506.25 C 270.779999 506.25 261.820007 515.320007 261.820007 526.840027 C 261.829987 538.330017 270.779999 547.340027 282.200012 547.340027 M 286.320007 448.419983 C 299.98999 448.419983 311.119995 437.390015 311.119995 423.829987 C 311.119995 410.230011 299.980011 399.149994 286.320007 399.149994 C 272.609985 399.149994 261.859985 410 261.859985 423.829987 C 261.850006 437.609985 272.600006 448.419983 286.320007 448.419983 M 236.119995 365.149994 C 252.070007 365.149994 265.059998 352.279999 265.059998 336.450012 C 265.059998 320.579987 252.070007 307.640015 236.119995 307.640015 C 220.100006 307.640015 207.570007 320.320007 207.570007 336.450012 C 207.570007 352.540009 220.100006 365.149994 236.119995 365.149994 M 334.470001 365.149994 C 350.450012 365.149994 363.420013 352.279999 363.420013 336.459991 C 363.420013 320.600006 350.450012 307.640015 334.470001 307.640015 C 318.480011 307.640015 305.940002 320.320007 305.940002 336.459991 C 305.940002 352.540009 318.480011 365.149994 334.470001 365.149994 M 285.299988 282.220001 C 303.540009 282.220001 318.390015 267.51001 318.390015 249.420013 C 318.390015 231.290009 303.549988 216.519989 285.299988 216.519989 C 267.019989 216.519989 252.690002 230.980011 252.690002 249.420013 C 252.690002 267.799988 267.019989 282.220001 285.299988 282.220001 M 385.880005 278.100006 C 401.850006 278.100006 414.829987 265.220001 414.829987 249.410004 C 414.829987 233.540009 401.850006 220.619995 385.880005 220.619995 C 369.880005 220.619995 357.350006 233.26001 357.350006 249.410004 C 357.350006 265.48999 369.880005 278.100006 385.880005 278.100006 M 436.059998 361.019989 C 449.720001 361.019989 460.839996 350.01001 460.839996 336.450012 C 460.839996 322.839996 449.720001 311.76001 436.059998 311.76001 C 422.320007 311.76001 411.579987 322.609985 411.579987 336.450012 C 411.579987 350.23999 422.320007 361.019989 436.059998 361.019989 M 385.929993 443.340027 C 397.329987 443.340027 406.619995 434.159973 406.619995 422.869995 C 406.619995 411.529999 397.320007 402.290009 385.929993 402.290009 C 374.519989 402.290009 365.570007 411.339996 365.570007 422.869995 C 365.570007 434.369995 374.519989 443.340027 385.929993 443.340027 M 181.179993 618.419983 C 194.850006 618.419983 205.979996 607.369995 205.979996 593.830017 C 205.979996 580.22998 194.860001 569.140015 181.179993 569.140015 C 167.460007 569.140015 156.710007 580 156.710007 593.830017 C 156.699997 607.619995 167.449997 618.419983 181.179993 618.419983 M 75.089996 513.619995 C 91.050003 513.619995 104.040001 500.75 104.040001 484.929993 C 104.040001 469.049988 91.050003 456.130005 75.089996 456.130005 C 59.080002 456.130005 46.529999 468.789978 46.529999 484.929993 C 46.529999 501.02002 59.080002 513.619995 75.089996 513.619995 M 33.450001 369.690002 C 51.700001 369.690002 66.540001 354.980011 66.540001 336.899994 C 66.540001 318.76001 51.700001 303.98999 33.450001 303.98999 C 15.17 303.98999 0.83 318.450012 0.83 336.899994 C 0.83 355.290009 15.17 369.690002 33.450001 369.690002 M 70.339996 224.529999 C 90.870003 224.529999 107.550003 207.98999 107.550003 187.630005 C 107.550003 167.23999 90.860001 150.599976 70.339996 150.599976 C 49.77 150.599976 33.650002 166.880005 33.650002 187.630005 C 33.639999 208.329956 49.77 224.529999 70.339996 224.529999 M 181.029999 124.830017 C 206.110001 124.830017 226.509995 104.630005 226.509995 79.73999 C 226.509995 54.820007 206.110001 34.5 181.029999 34.5 C 155.869995 34.5 136.179993 54.380005 136.179993 79.73999 C 136.169998 105.049988 155.860001 124.830017 181.029999 124.830017 M 334.410004 74.039978 C 354.929993 74.039978 371.630005 57.5 371.630005 37.140015 C 371.630005 16.75 354.940002 0.119995 334.410004 0.119995 C 313.839996 0.119995 297.720001 16.400024 297.720001 37.140015 C 297.720001 57.830017 313.850006 74.039978 334.410004 74.039978 M 480.679993 112.530029 C 498.920013 112.530029 513.76001 97.830017 513.76001 79.72998 C 513.76001 61.599976 498.920013 46.820007 480.679993 46.820007 C 462.399994 46.820007 448.049988 61.280029 448.049988 79.72998 C 448.049988 98.130005 462.399994 112.530029 480.679993 112.530029 M 596.380005 216.320007 C 612.349976 216.320007 625.330017 203.450012 625.330017 187.619995 C 625.330017 171.76001 612.349976 158.820007 596.380005 158.820007 C 580.390015 158.820007 567.840027 171.48999 567.840027 187.619995 C 567.840027 203.72998 580.380005 216.320007 596.380005 216.320007 M 590.090027 506.01001 C 601.47998 506.01001 610.76001 496.809998 610.76001 485.51001 C 610.76001 474.190002 601.47998 464.950012 590.090027 464.950012 C 578.679993 464.950012 569.700012 473.97998 569.700012 485.51001 C 569.700012 497.01001 578.679993 506.01001 590.090027 506.01001 M 480.790009 608.98999 C 489.910004 608.98999 497.339996 601.650024 497.339996 592.580017 C 497.339996 583.539978 489.910004 576.150024 480.790009 576.150024 C 471.670013 576.150024 464.470001 583.369995 464.470001 592.580017 C 464.480011 601.780029 471.670013 608.98999 480.790009 608.98999 M 334.529999 654.280029 C 323.109985 654.280029 314.140015 645.26001 314.140015 633.77002 C 314.140015 622.23999 323.109985 613.219971 334.529999 613.219971 C 345.929993 613.219971 355.200012 622.450012 355.200012 633.77002 C 355.200012 645.090027 345.929993 654.280029 334.529999 654.280029"></path><path fill="#0e9c9f" d="M 1706.97998 285.640015 C 1706.97998 323.910004 1673.689941 344.570007 1632.339966 344.570007 C 1594.079956 344.570007 1566.51001 327.350006 1554.27002 299.809998 L 1589.859985 279.140015 C 1595.97998 296.359985 1611.290039 306.679993 1632.339966 306.679993 C 1650.72998 306.679993 1664.880005 300.570007 1664.880005 285.23999 C 1664.880005 251.190002 1561.910034 270.329987 1561.910034 201.809998 C 1561.910034 165.839966 1592.910034 143.23999 1631.969971 143.23999 C 1663.339966 143.23999 1689.369995 157.789978 1702.76001 183.059998 L 1667.920044 202.570007 C 1661.040039 187.650024 1647.640015 180.76001 1631.959961 180.76001 C 1617.01001 180.76001 1604 187.27002 1604 201.040039 C 1604.01001 235.880005 1706.97998 214.829987 1706.97998 285.640015 M 1519.72998 148.219971 L 1519.72998 339.600006 L 1493.109985 339.600006 L 1478.390015 315.119995 C 1465.76001 335.019989 1445.099976 344.570007 1419.069946 344.570007 C 1376.199951 344.570007 1345.579956 315.480011 1345.579956 265.73999 L 1345.579956 148.219971 L 1386.930054 148.219971 L 1386.930054 261.51001 C 1386.930054 290.609985 1403.76001 305.929993 1429.780029 305.929993 C 1456.969971 305.929993 1478.390015 289.839996 1478.390015 250.809998 L 1478.390015 148.219971 L 1519.72998 148.219971 Z M 1263.430054 148.219971 L 1304.76001 148.219971 L 1304.76001 339.589996 L 1263.430054 339.589996 L 1263.430054 148.219971 Z M 1257.689941 93.109985 C 1257.689941 78.570007 1269.550049 66.710022 1284.119995 66.710022 C 1298.660034 66.710022 1310.52002 78.570007 1310.52002 93.109985 C 1310.52002 107.280029 1298.660034 119.530029 1284.119995 119.530029 C 1269.540039 119.530029 1257.689941 107.289978 1257.689941 93.109985 M 1226.199951 144.789978 L 1226.199951 189.579956 C 1199.02002 187.670044 1167.25 200.290039 1167.25 243.160004 L 1167.25 339.600006 L 1125.920044 339.600006 L 1125.920044 148.22998 L 1150.910034 148.22998 L 1167.25 180.390015 C 1178.76001 154.359985 1202.089966 144.789978 1226.199951 144.789978 M 1033.400024 339.589996 L 1074.72998 339.589996 L 1074.72998 148.219971 L 1033.400024 148.219971 L 1033.400024 339.589996 Z M 1027.660034 93.109985 C 1027.660034 107.280029 1039.52002 119.530029 1054.060059 119.530029 C 1068.609985 119.530029 1080.47998 107.289978 1080.47998 93.109985 C 1080.47998 78.570007 1068.609985 66.710022 1054.060059 66.710022 C 1039.52002 66.710022 1027.660034 78.580017 1027.660034 93.109985 M 792.929993 278.75 L 830.820007 256.529999 C 840.380005 283.720001 861.059998 301.709991 897.429993 301.709991 C 932.23999 301.709991 947.179993 286.029999 947.179993 266.48999 C 947.179993 242.76001 926.130005 234.73999 886.299988 222.5 C 844.599976 209.839966 804.02002 194.570007 804.02002 144.039978 C 804.02002 94.650024 844.97998 66.719971 890.140015 66.719971 C 934.159973 66.719971 966.690002 90.070007 983.530029 125.660034 L 946.409973 147.109985 C 936.840027 125.660034 919.98999 109.589966 890.140015 109.589966 C 864.51001 109.589966 848.049988 122.589966 848.049988 142.890015 C 848.049988 163.559998 862.969971 172.349976 902.01001 184.609985 C 946.400024 198.780029 991.169983 212.549988 991.169983 265.75 C 991.169983 314.73999 952.150024 344.589996 896.26001 344.589996 C 843.460022 344.579987 807.090027 318.549988 792.929993 278.75"></path><path fill="#0e9c9f" d="M 808.429993 454.98999 L 808.429993 403.329987 L 821.109985 403.329987 L 821.109985 454.200012 C 821.109985 463.27002 826.330017 469.650024 837.690002 469.650024 C 849.070007 469.650024 854.25 463.27002 854.25 454.200012 L 854.25 403.329987 L 866.950012 403.329987 L 866.950012 454.98999 C 866.950012 471.650024 854.599976 482.039978 837.690002 482.039978 C 820.690002 482.039978 808.429993 471.640015 808.429993 454.98999"></path><path fill="#0e9c9f" d="M 932.080017 446.710022 L 932.080017 480.599976 L 920.159973 480.599976 L 920.159973 447.909973 C 920.159973 439.549988 915.309998 435.119995 907.809998 435.119995 C 899.960022 435.119995 893.77002 439.76001 893.77002 451.02002 L 893.77002 480.599976 L 881.849976 480.599976 L 881.849976 425.409973 L 893.77002 425.409973 L 893.77002 432.460022 C 897.409973 426.73999 903.369995 423.970001 910.880005 423.970001 C 923.25 423.970001 932.080017 432.369995 932.080017 446.710022"></path><path fill="#0e9c9f" d="M 945.98999 425.409973 L 957.909973 425.409973 L 957.909973 480.599976 L 945.98999 480.599976 L 945.98999 425.409973 Z M 944.330017 409.51001 C 944.330017 405.309998 947.76001 401.890015 951.950012 401.890015 C 956.140015 401.890015 959.580017 405.309998 959.580017 409.51001 C 959.580017 413.600006 956.140015 417.119995 951.950012 417.119995 C 947.76001 417.119995 944.330017 413.600006 944.330017 409.51001"></path><path fill="#0e9c9f" d="M 1023.26001 425.409973 L 1001.73999 480.580017 L 987.950012 480.580017 L 966.419983 425.409973 L 979.440002 425.409973 L 994.890015 467.359985 L 1010.25 425.409973 Z"></path><path fill="#0e9c9f" d="M 1071.390015 448.359985 C 1069.72998 438.869995 1062.800049 434.77002 1055.609985 434.77002 C 1046.660034 434.77002 1040.599976 440.070007 1038.939941 448.359985 L 1071.390015 448.359985 Z M 1056.709961 471.109985 C 1063.339966 471.109985 1068.310059 468.130005 1070.959961 464.27002 L 1080.780029 469.98999 C 1075.699951 477.51001 1067.410034 482.039978 1056.599976 482.039978 C 1038.400024 482.039978 1026.569946 469.570007 1026.569946 453.01001 C 1026.569946 436.679993 1038.400024 423.959991 1055.719971 423.959991 C 1072.160034 423.959991 1083.430054 437.219971 1083.430054 453.130005 C 1083.430054 454.77002 1083.219971 456.530029 1083 458.090027 L 1039.069946 458.090027 C 1040.930054 466.669983 1047.900024 471.109985 1056.709961 471.109985"></path><path fill="#0e9c9f" d="M 1123.949951 424.410004 L 1123.949951 437.330017 C 1116.109985 436.75 1106.949951 440.390015 1106.949951 452.780029 L 1106.949951 480.570007 L 1095.030029 480.570007 L 1095.030029 425.400024 L 1106.949951 425.400024 L 1106.949951 434.669983 C 1110.26001 427.179993 1116.98999 424.410004 1123.949951 424.410004"></path><path fill="#0e9c9f" d="M 1172.290039 465.030029 C 1172.290039 476.070007 1162.689941 482.030029 1150.77002 482.030029 C 1139.73999 482.030029 1131.780029 477.059998 1128.25 469.130005 L 1138.530029 463.169983 C 1140.280029 468.130005 1144.699951 471.119995 1150.77002 471.119995 C 1156.060059 471.119995 1160.150024 469.340027 1160.150024 464.909973 C 1160.150024 455.099976 1130.459961 460.609985 1130.459961 440.849976 C 1130.459961 430.48999 1139.400024 423.980011 1150.660034 423.980011 C 1159.699951 423.980011 1167.199951 428.179993 1171.089966 435.460022 L 1161.040039 441.090027 C 1159.060059 436.780029 1155.180054 434.799988 1150.670044 434.799988 C 1146.359985 434.799988 1142.599976 436.669983 1142.599976 440.650024 C 1142.599976 450.690002 1172.290039 444.609985 1172.290039 465.030029"></path><path fill="#0e9c9f" d="M 1183.219971 425.409973 L 1195.150024 425.409973 L 1195.150024 480.599976 L 1183.219971 480.599976 L 1183.219971 425.409973 Z M 1181.579956 409.51001 C 1181.579956 405.309998 1184.98999 401.890015 1189.189941 401.890015 C 1193.390015 401.890015 1196.810059 405.309998 1196.810059 409.51001 C 1196.810059 413.600006 1193.390015 417.119995 1189.189941 417.119995 C 1184.98999 417.119995 1181.579956 413.600006 1181.579956 409.51001"></path><path fill="#0e9c9f" d="M 1227.160034 436.890015 L 1227.160034 463.390015 C 1227.160034 470.450012 1231.790039 470.309998 1240.839966 469.900024 L 1240.839966 480.590027 C 1222.52002 482.809998 1215.23999 477.73999 1215.23999 463.390015 L 1215.23999 436.890015 L 1205.079956 436.890015 L 1205.079956 425.409973 L 1215.23999 425.409973 L 1215.23999 413.480011 L 1227.160034 409.950012 L 1227.160034 425.400024 L 1240.839966 425.400024 L 1240.839966 436.880005 L 1227.160034 436.880005 Z"></path><path fill="#0e9c9f" d="M 1303.780029 425.409973 L 1282.579956 482.369995 C 1277.390015 496.380005 1268.339966 503.450012 1255.660034 502.659973 L 1255.660034 491.52002 C 1263.369995 491.969971 1267.569946 487.98999 1270.329956 480.710022 L 1270.880005 479.590027 L 1247.469971 425.409973 L 1260.48999 425.409973 L 1276.930054 465.460022 L 1291.079956 425.409973 L 1303.780029 425.409973 Z"></path><path fill="#0e9c9f" d="M 1384.369995 453 C 1384.369995 442.950012 1376.869995 435.549988 1367.150024 435.549988 C 1357.439941 435.549988 1349.930054 442.950012 1349.930054 453 C 1349.930054 463.049988 1357.430054 470.450012 1367.150024 470.450012 C 1376.869995 470.450012 1384.369995 463.049988 1384.369995 453 M 1338 453 C 1338 436.549988 1351.01001 423.970001 1367.140015 423.970001 C 1383.369995 423.970001 1396.290039 436.549988 1396.290039 453 C 1396.290039 469.320007 1383.369995 482.039978 1367.140015 482.039978 C 1351.01001 482.049988 1338 469.320007 1338 453"></path><path fill="#0e9c9f" d="M 1422.119995 424.299988 L 1422.119995 425.409973 L 1435.130005 425.409973 L 1435.130005 436.880005 L 1422.119995 436.880005 L 1422.119995 480.599976 L 1410.199951 480.599976 L 1410.199951 436.880005 L 1401.810059 436.880005 L 1401.810059 425.409973 L 1410.199951 425.409973 L 1410.199951 424.299988 C 1410.199951 409.380005 1418.589966 400.769989 1435.130005 401.880005 L 1435.130005 413.359985 C 1426.75 412.600006 1422.119995 415.809998 1422.119995 424.299988"></path><path fill="#0e9c9f" d="M 1468.599976 463.049988 L 1479.52002 456.630005 C 1482.26001 464.5 1488.25 469.669983 1498.72998 469.669983 C 1508.780029 469.669983 1513.079956 465.150024 1513.079956 459.52002 C 1513.079956 452.669983 1507 450.359985 1495.540039 446.820007 C 1483.51001 443.169983 1471.800049 438.77002 1471.800049 424.190002 C 1471.800049 409.950012 1483.589966 401.890015 1496.640015 401.890015 C 1509.319946 401.890015 1518.709961 408.619995 1523.560059 418.890015 L 1512.849976 425.059998 C 1510.089966 418.890015 1505.25 414.26001 1496.640015 414.26001 C 1489.22998 414.26001 1484.47998 418.01001 1484.47998 423.859985 C 1484.47998 429.830017 1488.790039 432.359985 1500.040039 435.880005 C 1512.849976 439.969971 1525.76001 443.950012 1525.76001 459.280029 C 1525.76001 473.419983 1514.51001 482.02002 1498.390015 482.02002 C 1483.180054 482.02002 1472.680054 474.52002 1468.599976 463.049988"></path><path fill="#0e9c9f" d="M 1535.48999 453 C 1535.48999 436.549988 1547.959961 423.970001 1564.640015 423.970001 C 1575.459961 423.970001 1584.839966 429.599976 1589.26001 438.210022 L 1578.97998 444.169983 C 1576.550049 438.97998 1571.150024 435.669983 1564.51001 435.669983 C 1554.800049 435.669983 1547.410034 443.059998 1547.410034 453 C 1547.410034 462.940002 1554.790039 470.309998 1564.51001 470.309998 C 1571.140015 470.309998 1576.540039 466.909973 1579.199951 461.820007 L 1589.469971 467.659973 C 1584.829956 476.390015 1575.449951 482.039978 1564.630005 482.039978 C 1547.959961 482.049988 1535.48999 469.320007 1535.48999 453"></path><path fill="#0e9c9f" d="M 1599.180054 425.409973 L 1611.099976 425.409973 L 1611.099976 480.599976 L 1599.180054 480.599976 L 1599.180054 425.409973 Z M 1597.540039 409.51001 C 1597.540039 405.309998 1600.959961 401.890015 1605.150024 401.890015 C 1609.349976 401.890015 1612.77002 405.309998 1612.77002 409.51001 C 1612.77002 413.600006 1609.349976 417.119995 1605.150024 417.119995 C 1600.959961 417.119995 1597.540039 413.600006 1597.540039 409.51001"></path><path fill="#0e9c9f" d="M 1667.73999 448.359985 C 1666.079956 438.869995 1659.150024 434.77002 1651.959961 434.77002 C 1643.02002 434.77002 1636.939941 440.070007 1635.290039 448.359985 L 1667.73999 448.359985 Z M 1653.069946 471.109985 C 1659.689941 471.109985 1664.650024 468.130005 1667.319946 464.27002 L 1677.130005 469.98999 C 1672.060059 477.51001 1663.77002 482.039978 1652.949951 482.039978 C 1634.75 482.039978 1622.930054 469.570007 1622.930054 453.01001 C 1622.930054 436.679993 1634.76001 423.959991 1652.069946 423.959991 C 1668.52002 423.959991 1679.780029 437.219971 1679.780029 453.130005 C 1679.780029 454.77002 1679.569946 456.530029 1679.349976 458.090027 L 1635.420044 458.090027 C 1637.27002 466.669983 1644.23999 471.109985 1653.069946 471.109985"></path><path fill="#0e9c9f" d="M 1741.609985 446.710022 L 1741.609985 480.599976 L 1729.680054 480.599976 L 1729.680054 447.909973 C 1729.680054 439.549988 1724.829956 435.119995 1717.319946 435.119995 C 1709.47998 435.119995 1703.290039 439.76001 1703.290039 451.02002 L 1703.290039 480.599976 L 1691.390015 480.599976 L 1691.390015 425.409973 L 1703.290039 425.409973 L 1703.290039 432.460022 C 1706.949951 426.73999 1712.900024 423.970001 1720.410034 423.970001 C 1732.780029 423.970001 1741.609985 432.369995 1741.609985 446.710022"></path><path fill="#0e9c9f" d="M 1752.420044 453 C 1752.420044 436.549988 1764.890015 423.970001 1781.560059 423.970001 C 1792.380005 423.970001 1801.76001 429.599976 1806.180054 438.210022 L 1795.910034 444.169983 C 1793.469971 438.97998 1788.060059 435.669983 1781.439941 435.669983 C 1771.719971 435.669983 1764.329956 443.059998 1764.329956 453 C 1764.329956 462.940002 1771.719971 470.309998 1781.439941 470.309998 C 1788.060059 470.309998 1793.459961 466.909973 1796.119995 461.820007 L 1806.400024 467.659973 C 1801.76001 476.390015 1792.380005 482.039978 1781.560059 482.039978 C 1764.890015 482.049988 1752.420044 469.320007 1752.420044 453"></path><path fill="#0e9c9f" d="M 1856.949951 448.359985 C 1855.300049 438.869995 1848.359985 434.77002 1841.160034 434.77002 C 1832.23999 434.77002 1826.170044 440.070007 1824.5 448.359985 L 1856.949951 448.359985 Z M 1842.280029 471.109985 C 1848.900024 471.109985 1853.869995 468.130005 1856.52002 464.27002 L 1866.349976 469.98999 C 1861.27002 477.51001 1852.97998 482.039978 1842.170044 482.039978 C 1823.959961 482.039978 1812.140015 469.570007 1812.140015 453.01001 C 1812.140015 436.679993 1823.959961 423.959991 1841.290039 423.959991 C 1857.73999 423.959991 1869 437.219971 1869 453.130005 C 1869 454.77002 1868.780029 456.530029 1868.560059 458.090027 L 1824.619995 458.090027 C 1826.5 466.669983 1833.449951 471.109985 1842.280029 471.109985"></path><path fill="#0e9c9f" d="M 852.159973 566.150024 C 852.159973 555.869995 844.650024 548.5 834.719971 548.5 C 824.77002 548.5 817.27002 555.869995 817.27002 566.150024 C 817.27002 576.419983 824.76001 583.820007 834.719971 583.820007 C 844.650024 583.830017 852.159973 576.419983 852.159973 566.150024 M 864.080017 538.570007 L 864.080017 593.73999 L 852.159973 593.73999 L 852.159973 585.820007 C 847.960022 591.659973 841.460022 595.190002 832.840027 595.190002 C 817.809998 595.190002 805.359985 582.5 805.359985 566.150024 C 805.359985 549.700012 817.820007 537.109985 832.840027 537.109985 C 841.460022 537.109985 847.960022 540.659973 852.159973 546.390015 L 852.159973 538.559998 L 864.080017 538.559998 Z"></path><path fill="#0e9c9f" d="M 929.309998 559.869995 L 929.309998 593.77002 L 917.400024 593.77002 L 917.400024 561.070007 C 917.400024 552.710022 912.549988 548.27002 905.049988 548.27002 C 897.200012 548.27002 891.01001 552.919983 891.01001 564.179993 L 891.01001 593.77002 L 879.090027 593.77002 L 879.090027 538.570007 L 891.01001 538.570007 L 891.01001 545.619995 C 894.650024 539.900024 900.609985 537.130005 908.119995 537.130005 C 920.48999 537.130005 929.309998 545.52002 929.309998 559.869995"></path><path fill="#0e9c9f" d="M 986.950012 566.150024 C 986.950012 555.869995 979.440002 548.5 969.5 548.5 C 959.559998 548.5 952.059998 555.869995 952.059998 566.150024 C 952.059998 576.429993 959.549988 583.820007 969.5 583.820007 C 979.440002 583.830017 986.950012 576.429993 986.950012 566.150024 M 998.869995 516.48999 L 998.869995 593.75 L 986.950012 593.75 L 986.950012 585.820007 C 982.73999 591.659973 976.23999 595.190002 967.619995 595.190002 C 952.590027 595.190002 940.140015 582.5 940.140015 566.150024 C 940.140015 549.700012 952.599976 537.119995 967.619995 537.119995 C 976.23999 537.119995 982.73999 540.659973 986.950012 546.390015 L 986.950012 516.48999 L 998.869995 516.48999 Z"></path><path fill="#0e9c9f" d="M 1093.589966 528.630005 L 1071.839966 528.630005 L 1071.839966 593.75 L 1059.150024 593.75 L 1059.150024 528.630005 L 1037.290039 528.630005 L 1037.290039 516.47998 L 1093.589966 516.47998 Z"></path><path fill="#0e9c9f" d="M 1135.079956 561.52002 C 1133.430054 552.030029 1126.48999 547.929993 1119.300049 547.929993 C 1110.359985 547.929993 1104.300049 553.22998 1102.640015 561.52002 L 1135.079956 561.52002 Z M 1120.410034 584.26001 C 1127.040039 584.26001 1132 581.280029 1134.650024 577.419983 L 1144.469971 583.130005 C 1139.400024 590.659973 1131.109985 595.179993 1120.280029 595.179993 C 1102.079956 595.179993 1090.27002 582.700012 1090.27002 566.150024 C 1090.27002 549.820007 1102.089966 537.099976 1119.420044 537.099976 C 1135.859985 537.099976 1147.130005 550.359985 1147.130005 566.27002 C 1147.130005 567.909973 1146.910034 569.669983 1146.699951 571.22998 L 1102.76001 571.22998 C 1104.640015 579.830017 1111.589966 584.26001 1120.410034 584.26001"></path><path fill="#0e9c9f" d="M 1155.300049 566.159973 C 1155.300049 549.710022 1167.77002 537.130005 1184.439941 537.130005 C 1195.25 537.130005 1204.640015 542.76001 1209.060059 551.369995 L 1198.790039 557.330017 C 1196.359985 552.140015 1190.949951 548.830017 1184.329956 548.830017 C 1174.609985 548.830017 1167.209961 556.210022 1167.209961 566.159973 C 1167.209961 576.099976 1174.609985 583.469971 1184.329956 583.469971 C 1190.949951 583.469971 1196.359985 580.070007 1199.01001 574.97998 L 1209.280029 580.820007 C 1204.650024 589.549988 1195.26001 595.200012 1184.439941 595.200012 C 1167.780029 595.200012 1155.300049 582.47998 1155.300049 566.159973"></path><path fill="#0e9c9f" d="M 1269.22998 559.869995 L 1269.22998 593.77002 L 1257.310059 593.77002 L 1257.310059 561.070007 C 1257.310059 552.710022 1252.459961 548.27002 1244.959961 548.27002 C 1237.109985 548.27002 1230.930054 552.919983 1230.930054 564.179993 L 1230.930054 593.77002 L 1219 593.77002 L 1219 516.48999 L 1230.920044 516.48999 L 1230.920044 545.619995 C 1234.560059 539.900024 1240.52002 537.130005 1248.030029 537.130005 C 1260.400024 537.130005 1269.22998 545.52002 1269.22998 559.869995"></path><path fill="#0e9c9f" d="M 1333.369995 559.869995 L 1333.369995 593.77002 L 1321.449951 593.77002 L 1321.449951 561.070007 C 1321.449951 552.710022 1316.599976 548.27002 1309.079956 548.27002 C 1301.25 548.27002 1295.069946 552.919983 1295.069946 564.179993 L 1295.069946 593.77002 L 1283.150024 593.77002 L 1283.150024 538.570007 L 1295.069946 538.570007 L 1295.069946 545.619995 C 1298.709961 539.900024 1304.670044 537.130005 1312.180054 537.130005 C 1324.540039 537.130005 1333.369995 545.52002 1333.369995 559.869995"></path><path fill="#0e9c9f" d="M 1390.560059 566.159973 C 1390.560059 556.109985 1383.050049 548.710022 1373.339966 548.710022 C 1363.630005 548.710022 1356.119995 556.109985 1356.119995 566.159973 C 1356.119995 576.210022 1363.630005 583.609985 1373.339966 583.609985 C 1383.050049 583.609985 1390.560059 576.210022 1390.560059 566.159973 M 1344.189941 566.159973 C 1344.189941 549.710022 1357.199951 537.130005 1373.329956 537.130005 C 1389.560059 537.130005 1402.469971 549.710022 1402.469971 566.159973 C 1402.469971 582.47998 1389.550049 595.200012 1373.329956 595.200012 C 1357.199951 595.200012 1344.189941 582.47998 1344.189941 566.159973"></path><path fill="#0e9c9f" d="M 1414.390015 513.169983 L 1426.329956 513.169983 L 1426.329956 593.75 L 1414.390015 593.75 Z"></path><path fill="#0e9c9f" d="M 1484.5 566.159973 C 1484.5 556.109985 1476.98999 548.710022 1467.280029 548.710022 C 1457.569946 548.710022 1450.050049 556.109985 1450.050049 566.159973 C 1450.050049 576.210022 1457.569946 583.609985 1467.280029 583.609985 C 1476.98999 583.609985 1484.5 576.210022 1484.5 566.159973 M 1438.130005 566.159973 C 1438.130005 549.710022 1451.140015 537.130005 1467.27002 537.130005 C 1483.48999 537.130005 1496.410034 549.710022 1496.410034 566.159973 C 1496.410034 582.47998 1483.48999 595.200012 1467.27002 595.200012 C 1451.150024 595.200012 1438.130005 582.47998 1438.130005 566.159973"></path><path fill="#0e9c9f" d="M 1552.280029 565.609985 C 1552.280029 555.679993 1544.780029 548.280029 1534.72998 548.280029 C 1524.680054 548.280029 1517.170044 555.679993 1517.170044 565.609985 C 1517.170044 575.549988 1524.680054 582.940002 1534.72998 582.940002 C 1544.780029 582.940002 1552.280029 575.539978 1552.280029 565.609985 M 1563.97998 538.570007 L 1563.97998 591.22998 C 1563.97998 608.98999 1550.069946 617.280029 1535.619995 617.280029 C 1523.469971 617.280029 1514.089966 612.76001 1509.449951 603.929993 L 1519.719971 597.969971 C 1522.150024 602.700012 1526.23999 606.469971 1535.819946 606.469971 C 1546.099976 606.469971 1552.290039 600.830017 1552.290039 591.23999 L 1552.290039 584.51001 C 1548.099976 590.450012 1541.589966 594.090027 1533.089966 594.090027 C 1517.52002 594.090027 1505.27002 581.409973 1505.27002 565.630005 C 1505.27002 549.840027 1517.51001 537.130005 1533.089966 537.130005 C 1541.589966 537.130005 1548.099976 540.77002 1552.290039 546.73999 L 1552.290039 538.580017 L 1563.97998 538.580017 Z"></path><path fill="#0e9c9f" d="M 1628.890015 538.570007 L 1607.699951 595.530029 C 1602.51001 609.539978 1593.459961 616.609985 1580.76001 615.820007 L 1580.76001 604.679993 C 1588.48999 605.130005 1592.680054 601.150024 1595.449951 593.869995 L 1596 592.76001 L 1572.589966 538.570007 L 1585.609985 538.570007 L 1602.060059 578.619995 L 1616.209961 538.570007 L 1628.890015 538.570007 Z"></path></svg>