<svg width="52" height="52" viewBox="0 0 52 52" fill="none" xmlns="http://www.w3.org/2000/svg">
<path d="M49.87 28.6881C48.7816 28.6881 47.9281 27.8299 47.9281 26.7359C47.9281 25.638 48.7823 24.7766 49.87 24.7766C50.9552 24.7766 51.8396 25.6555 51.8396 26.7359C51.8396 27.8117 50.9544 28.6881 49.87 28.6881ZM30.5982 43.1171C31.3231 43.1171 31.9121 42.532 31.9121 41.8159C31.9121 41.0951 31.3231 40.5092 30.5982 40.5092C29.8734 40.5092 29.3034 41.0824 29.3034 41.8159C29.3034 42.5455 29.8734 43.1171 30.5982 43.1171ZM37.4178 39.0095C38.141 39.0095 38.7309 38.4268 38.7309 37.7083C38.7309 36.9891 38.141 36.4016 37.4178 36.4016C36.6922 36.4016 36.1237 36.9748 36.1237 37.7083C36.1237 38.4395 36.6922 39.0095 37.4178 39.0095ZM41.4317 32.3091C42.3367 32.3091 43.0719 31.5779 43.0719 30.6824C43.0719 29.7821 42.3367 29.0493 41.4317 29.0493C40.5243 29.0493 39.8137 29.767 39.8137 30.6824C39.8137 31.5954 40.5243 32.3091 41.4317 32.3091ZM41.5087 24.4702C42.594 24.4702 43.4768 23.5953 43.4768 22.5188C43.4768 21.4391 42.5947 20.5595 41.5087 20.5595C40.4203 20.5595 39.566 21.4208 39.566 22.5188C39.5653 23.6136 40.4195 24.4702 41.5087 24.4702ZM37.9687 17.9317C39.2358 17.9317 40.2663 16.9107 40.2663 15.654C40.2663 14.3949 39.2358 13.3684 37.9687 13.3684C36.6985 13.3684 35.703 14.3726 35.703 15.654C35.703 16.9329 36.6985 17.9317 37.9687 17.9317ZM30.5895 14.3361C32.0376 14.3361 33.2157 13.1691 33.2157 11.7322C33.2157 10.2928 32.0376 9.11945 30.5895 9.11945C29.1383 9.11945 28.0006 10.2682 28.0006 11.7322C27.9998 13.1937 29.1375 14.3361 30.5895 14.3361ZM22.3687 14.6616C23.9962 14.6616 25.3236 13.3493 25.3236 11.7322C25.3236 10.1126 23.9962 8.79475 22.3687 8.79475C20.7349 8.79475 19.4559 10.0848 19.4559 11.7322C19.4559 13.3763 20.7349 14.6616 22.3687 14.6616ZM15.1626 18.6247C16.7908 18.6247 18.1166 17.3116 18.1166 15.6953C18.1166 14.0765 16.7916 12.7555 15.1626 12.7555C13.5287 12.7555 12.2498 14.0487 12.2498 15.6953C12.249 17.3378 13.5287 18.6247 15.1626 18.6247ZM11.4027 25.1624C12.8507 25.1624 14.0297 23.9938 14.0297 22.5585C14.0297 21.1184 12.8507 19.9466 11.4027 19.9466C9.95145 19.9466 8.8138 21.0937 8.8138 22.5585C8.81301 24.02 9.95066 25.1624 11.4027 25.1624ZM11.4043 32.9624C12.6721 32.9624 13.7026 31.9399 13.7026 30.684C13.7026 29.4241 12.6713 28.3976 11.4043 28.3976C10.1348 28.3976 9.1393 29.4026 9.1393 30.684C9.1393 31.9613 10.1348 32.9624 11.4043 32.9624ZM15.6413 39.6613C16.7273 39.6613 17.6117 38.7856 17.6117 37.7099C17.6117 36.6302 16.7273 35.7506 15.6413 35.7506C14.5536 35.7506 13.6994 36.612 13.6994 37.7099C13.6994 38.8047 14.5544 39.6613 15.6413 39.6613ZM22.3378 43.4434C23.2428 43.4434 23.9787 42.7138 23.9787 41.8159C23.9787 40.9149 23.2428 40.1813 22.3378 40.1813C21.4311 40.1813 20.7198 40.9014 20.7198 41.8159C20.7206 42.7281 21.4311 43.4434 22.3378 43.4434ZM22.6649 35.5902C23.7501 35.5902 24.6337 34.7146 24.6337 33.638C24.6337 32.5584 23.7493 31.6787 22.6649 31.6787C21.5764 31.6787 20.723 32.5401 20.723 33.638C20.7222 34.732 21.5756 35.5902 22.6649 35.5902ZM18.6795 28.9795C19.9458 28.9795 20.977 27.9577 20.977 26.701C20.977 25.4411 19.9458 24.4138 18.6795 24.4138C17.4077 24.4138 16.4129 25.4205 16.4129 26.701C16.4129 27.9784 17.4077 28.9795 18.6795 28.9795ZM26.4875 28.9795C27.7561 28.9795 28.7858 27.9577 28.7858 26.7018C28.7858 25.4427 27.7561 24.4138 26.4875 24.4138C25.218 24.4138 24.2225 25.4205 24.2225 26.7018C24.2225 27.9784 25.218 28.9795 26.4875 28.9795ZM22.5839 22.3957C24.0319 22.3957 25.2109 21.2279 25.2109 19.7918C25.2109 18.3524 24.0327 17.1798 22.5839 17.1798C21.1326 17.1798 19.995 18.3278 19.995 19.7918C19.995 21.2509 21.1326 22.3957 22.5839 22.3957ZM30.5689 22.0686C31.8367 22.0686 32.8672 21.0461 32.8672 19.791C32.8672 18.5311 31.8367 17.5053 30.5689 17.5053C29.2986 17.5053 28.3039 18.5088 28.3039 19.791C28.3039 21.0675 29.2986 22.0686 30.5689 22.0686ZM34.5526 28.6516C35.6371 28.6516 36.5199 27.7775 36.5199 26.701C36.5199 25.6205 35.6371 24.7409 34.5526 24.7409C33.4618 24.7409 32.6092 25.6023 32.6092 26.701C32.6092 27.7958 33.4618 28.6516 34.5526 28.6516ZM30.5728 35.1869C31.4779 35.1869 32.2154 34.4581 32.2154 33.5618C32.2154 32.6616 31.4771 31.928 30.5728 31.928C29.667 31.928 28.9565 32.6465 28.9565 33.5618C28.9565 34.4748 29.667 35.1869 30.5728 35.1869ZM14.3179 49.0864C15.4031 49.0864 16.2867 48.2092 16.2867 47.1342C16.2867 46.0545 15.4039 45.1741 14.3179 45.1741C13.2286 45.1741 12.3752 46.0363 12.3752 47.1342C12.3744 48.229 13.2278 49.0864 14.3179 49.0864ZM5.89545 40.7664C7.1625 40.7664 8.19377 39.7447 8.19377 38.4887C8.19377 37.228 7.1625 36.2023 5.89545 36.2023C4.62443 36.2023 3.62809 37.2074 3.62809 38.4887C3.62809 39.7661 4.62443 40.7664 5.89545 40.7664ZM2.58968 29.3399C4.03853 29.3399 5.21667 28.1721 5.21667 26.7367C5.21667 25.2966 4.03853 24.124 2.58968 24.124C1.13844 24.124 0 25.272 0 26.7367C0 28.1967 1.13844 29.3399 2.58968 29.3399ZM5.51835 17.8158C7.14821 17.8158 8.47243 16.5027 8.47243 14.8863C8.47243 13.2675 7.14742 11.9465 5.51835 11.9465C3.88531 11.9465 2.60556 13.239 2.60556 14.8863C2.60476 16.5296 3.88531 17.8158 5.51835 17.8158ZM14.306 9.90064C16.297 9.90064 17.9166 8.29698 17.9166 6.32098C17.9166 4.3426 16.297 2.7294 14.306 2.7294C12.3085 2.7294 10.7453 4.30766 10.7453 6.32098C10.7445 8.33032 12.3077 9.90064 14.306 9.90064ZM26.4827 5.86846C28.1118 5.86846 29.4376 4.55536 29.4376 2.93899C29.4376 1.32024 28.1126 0 26.4827 0C24.8496 0 23.5699 1.29246 23.5699 2.93899C23.5699 4.58156 24.8504 5.86846 26.4827 5.86846ZM38.095 8.92416C39.543 8.92416 40.7212 7.75713 40.7212 6.32018C40.7212 4.88085 39.543 3.70748 38.095 3.70748C36.6437 3.70748 35.5045 4.85545 35.5045 6.32018C35.5045 7.78095 36.6437 8.92416 38.095 8.92416ZM47.2803 17.164C48.5481 17.164 49.5786 16.1422 49.5786 14.8855C49.5786 13.6264 48.5481 12.5991 47.2803 12.5991C46.0109 12.5991 45.0145 13.6049 45.0145 14.8855C45.0145 16.1645 46.0101 17.164 47.2803 17.164ZM46.7809 40.1623C47.6852 40.1623 48.4219 39.4319 48.4219 38.5348C48.4219 37.6361 47.6852 36.9025 46.7809 36.9025C45.8751 36.9025 45.1622 37.6194 45.1622 38.5348C45.1622 39.4478 45.8751 40.1623 46.7809 40.1623ZM38.1037 48.3378C38.8277 48.3378 39.4176 47.7551 39.4176 47.035C39.4176 46.3173 38.8277 45.7306 38.1037 45.7306C37.3797 45.7306 36.8081 46.3038 36.8081 47.035C36.8089 47.7654 37.3797 48.3378 38.1037 48.3378ZM26.4922 51.9333C25.5856 51.9333 24.8735 51.2172 24.8735 50.305C24.8735 49.3897 25.5856 48.6736 26.4922 48.6736C27.3973 48.6736 28.1332 49.4064 28.1332 50.305C28.1332 51.2037 27.3973 51.9333 26.4922 51.9333Z" fill="#0E9C9F"/>
</svg>
